<mxfile host="app.diagrams.net" modified="2023-10-14T02:52:10.446Z" agent="Mozilla/5.0 (Macintosh; Intel Mac OS X 10_15_7) AppleWebKit/537.36 (KHTML, like Gecko) Chrome/114.0.0.0 Safari/537.36" version="21.8.1" etag="YMqIzkMjPFWIE0CnUIGm" type="github">
  <diagram name="페이지-1" id="mN6kv3Wfrs-_YJACGQyr">
    <mxGraphModel>
      <root>
        <mxCell id="0" />
        <mxCell id="1" parent="0" />
      </root>
    </mxGraphModel>
  </diagram>
</mxfile>
